<?xml version="1.0" ?>
<svg id="Layer_1" style="enable-background:new 0 0 24 24;" version="1.1" viewBox="0 0 24 24" xml:space="preserve"
     xmlns="http://www.w3.org/2000/svg" xmlns:xlink="http://www.w3.org/1999/xlink"><g id="XMLID_1353_"><path d="   M4.18,19.819l0.242-0.32c0.808-1.068,1.368-2.336,1.432-3.674c0.011-0.238,0.01-0.476-0.003-0.713   c-0.09-1.637-0.753-3.248-2.003-4.498c-0.129-0.129-0.265-0.246-0.402-0.363C4.201,7.456,3.551,4.369,1.5,2.089   c2.54-1.123,5.616-0.646,7.691,1.446c0.088,0.385-1.685,3.406,1.575,6.933c0.041,0.002,0.064,0.002,0.104,0.004l1.739-1.743v1.156   c0,0.832,0.674,1.506,1.506,1.506h1.156l-1.775,1.775c0,0,0.209,0.227,0.332,0.332c3.398,2.899,6.262,1.227,6.636,1.312   c2.091,2.075,2.569,5.151,1.446,7.691c-2.28-2.051-5.368-2.701-8.162-1.946c-0.117-0.136-0.234-0.273-0.363-0.402   c-1.25-1.25-2.862-1.913-4.498-2.003c-0.237-0.013-0.475-0.014-0.713-0.003c-1.338,0.064-2.605,0.624-3.674,1.432L4.18,19.819z" id="XMLID_42_" style="fill:none;stroke:white;stroke-linecap:round;stroke-linejoin:round;stroke-miterlimit:10;"/></g></svg>