<svg version="1.1" xmlns="http://www.w3.org/2000/svg" xmlns:xlink="http://www.w3.org/1999/xlink" width="185.24714"
     height="442.64562" viewBox="427.5,146.26147,185.24714,442.64562">
    <g fill-opacity="0" fill="#000000" fill-rule="nonzero" stroke="#000000" stroke-width="0" stroke-linecap="round"
       stroke-linejoin="round" stroke-miterlimit="10" stroke-dasharray="" stroke-dashoffset="0" font-family="none"
       font-weight="none" font-size="none" text-anchor="none" style="mix-blend-mode: normal">
        <path d="M428,200c21.33939,-30.23191 54.6642,-48.18316 91.13293,-52.37101c17.63181,-2.02473 35.28101,-0.99922 50.77848,8.43417c15.98669,9.73118 24.21368,27.36492 30.16464,44.38342c14.09787,40.31692 9.59885,86.98818 -20.91113,118.52084c-14.11914,12.34978 -29.79098,19.4264 -48.41108,22.51636c-5.8883,0.97715 -12.77361,2.34749 -18.79958,1.55339c-7.29501,-0.96134 -14.63647,-2.82747 -20.4895,-7.52988c-16.35545,-13.14022 -16.11033,-37.69312 -4.24845,-53.63963c23.6948,-31.85408 83.52071,-35.64613 107.48536,-2.53368c15.52411,21.44999 17.57104,51.25431 17.54523,76.92918c-0.76421,19.9528 -5.36094,40.88356 -15.72508,58.20264c-15.5164,25.92879 -41.78353,45.08955 -70.4372,54.11168c-23.03234,7.25215 -54.46233,5.8876 -71.66625,-13.44668c-7.48381,-8.41053 -15.99116,-22.75514 -7.05749,-33.46686c4.37194,-5.24208 5.49472,-5.65668 11.90598,-9.37932c4.39829,-2.55383 9.3512,-4.23498 14.29572,-5.3284c25.93628,-5.73547 54.20101,3.93425 77.35851,15.03026c16.55738,8.2661 31.30096,18.92969 40.65859,35.24241c17.59742,30.67674 12.54608,75.35551 -12.93832,100.52055c-16.30632,16.10198 -38.58545,21.83079 -60.36301,26.08432c-12.42139,2.42611 -24.72686,4.5216 -37.40871,4.57333"
              id="path-plane"/>
    </g>
</svg>