<?xml version="1.0" encoding="iso-8859-1"?>
<!-- Uploaded to: SVG Repo, www.svgrepo.com, Generator: SVG Repo Mixer Tools -->
<svg height="800px" width="800px" version="1.1" id="Layer_1" xmlns="http://www.w3.org/2000/svg" xmlns:xlink="http://www.w3.org/1999/xlink" 
	 viewBox="0 0 512 512" xml:space="preserve">
<path style="fill:#F7B239;" d="M365.443,365.424l-136.797,136.81l21.015-189.171c16.728,1.85,34.108-3.635,46.941-16.468
	L365.443,365.424z"/>
<polyline style="fill:#E09B2D;" points="280.759,294.133 306.636,424.236 386.288,346.246 307.21,281.952 "/>
<path style="fill:#F7B239;" d="M283.364,9.778L262.35,198.948c-16.728-1.85-34.108,3.635-46.928,16.455l-68.854-68.841
	L283.364,9.778z"/>
<g>
	<polygon style="fill:#E09B2D;" points="262.35,198.948 281.897,22.982 216.096,77.04 239.288,201.077 	"/>
	<path style="fill:#E09B2D;" d="M215.409,296.595l-68.841,68.841L9.77,228.64l189.171,21.028
		C197.091,266.383,202.589,283.776,215.409,296.595z"/>
</g>
<path style="fill:#2BA5F7;" d="M502.227,283.359l-15.373,203.476L365.443,365.424l-68.841-68.828v-0.013
	c9.602-9.602,15.074-21.744,16.455-34.251L502.227,283.359z"/>
<path style="fill:#F7B239;" d="M502.227,283.359l-189.171-21.028c1.85-16.728-3.635-34.095-16.455-46.915l68.841-68.841
	L502.227,283.359z"/>
<path style="fill:#2BA5F7;" d="M486.853,25.164L365.443,146.575l-68.841,68.841c-9.589-9.589-21.744-15.087-34.251-16.468
	L283.364,9.778L486.853,25.164z"/>
<path style="fill:#F95428;" d="M262.35,198.948c12.507,1.381,24.663,6.879,34.251,16.468c12.82,12.82,18.305,30.187,16.455,46.915
	c-1.381,12.507-6.853,24.65-16.455,34.251v0.013c-12.833,12.833-30.213,18.318-46.941,16.468
	c-12.507-1.381-24.65-6.866-34.238-16.468h-0.013c-12.82-12.82-18.318-30.213-16.468-46.928
	c1.381-12.507,6.879-24.663,16.468-34.251l0.013-0.013C228.242,202.583,245.622,197.098,262.35,198.948z"/>
<g>
	<path style="fill:#2BA5F7;" d="M249.66,313.063l-21.015,189.171L25.17,486.834l121.398-121.398l68.841-68.841h0.013
		C225.011,306.197,237.153,311.682,249.66,313.063z"/>
	<path style="fill:#2BA5F7;" d="M215.422,215.403l-0.013,0.013c-9.589,9.589-15.087,21.744-16.468,34.251L9.77,228.64L25.17,25.164
		l121.398,121.398L215.422,215.403z"/>
</g>
<g>
	<path style="fill:#FFFFFF;" d="M274.906,284.676c-5.398,0-9.771-4.371-9.771-9.769v-0.007c0-2.591,1.029-5.076,2.861-6.909
		c2.753-2.753,4.434-6.251,4.86-10.115c0.571-5.153-1.201-10.205-4.86-13.865c-2.757-2.757-6.255-4.44-10.113-4.866
		c-5.364-0.593-9.232-5.421-8.64-10.785c0.593-5.362,5.402-9.225,10.785-8.639c8.201,0.905,15.938,4.624,21.786,10.471
		c7.877,7.877,11.693,18.749,10.466,29.83c-0.899,8.149-4.573,15.836-10.344,21.665C280.16,283.531,277.666,284.676,274.906,284.676
		z"/>
	<path style="fill:#FFFFFF;" d="M419.117,62.295c-0.232,0-0.464-0.008-0.698-0.025l-47.049-3.322
		c-5.383-0.38-9.439-5.052-9.059-10.436s5.055-9.443,10.436-9.059l47.049,3.322c5.383,0.38,9.439,5.052,9.059,10.436
		C428.489,58.36,424.199,62.295,419.117,62.295z"/>
	<path style="fill:#FFFFFF;" d="M463.603,421.292c-0.246,0-0.496-0.009-0.747-0.029c-5.381-0.406-9.414-5.098-9.006-10.479
		l5.133-67.95c0.406-5.381,5.088-9.423,10.48-9.008c5.381,0.406,9.414,5.098,9.006,10.479l-5.133,67.95
		C472.948,417.386,468.664,421.292,463.603,421.292z"/>
	<circle style="fill:#FFFFFF;" cx="470.986" cy="313.695" r="9.771"/>
</g>
<path style="fill:#333333;" d="M509.138,276.451L379.259,146.572l114.5-114.5c2.699-2.699,3.579-6.725,2.253-10.305
	s-4.617-6.059-8.425-6.347L284.097,0.03c-2.84-0.224-5.631,0.819-7.646,2.834L146.573,132.741L32.084,18.254
	c-2.701-2.701-6.727-3.58-10.305-2.253c-3.58,1.328-6.059,4.617-6.347,8.425L0.029,227.904c-0.215,2.84,0.819,5.632,2.834,7.646
	l129.891,129.891L18.264,479.93c-2.699,2.699-3.579,6.725-2.253,10.305s4.617,6.059,8.425,6.347l203.467,15.39
	c0.245,0.02,0.492,0.027,0.737,0.027c2.58,0,5.069-1.023,6.909-2.862l129.889-129.889l114.5,114.5
	c1.867,1.866,4.365,2.862,6.911,2.862c1.14,0,2.289-0.199,3.394-0.61c3.58-1.328,6.059-4.617,6.347-8.425l15.379-203.478
	C512.187,281.257,511.151,278.465,509.138,276.451z M323.093,253.614c-0.469-13.315-4.86-26.511-13.183-37.691l55.531-55.532
	L475.619,270.57L323.093,253.614z M289.686,289.685c-8.996,8.997-20.959,13.952-33.683,13.952c-12.723,0-24.685-4.955-33.683-13.952
	c-8.996-8.997-13.952-20.959-13.952-33.683s4.956-24.686,13.953-33.683c8.996-8.997,20.959-13.952,33.682-13.952
	c12.725,0,24.686,4.955,33.683,13.952C308.259,240.893,308.259,271.112,289.686,289.685z M358.534,139.659
	c-0.001,0.001-0.003,0.003-0.004,0.004l-62.43,62.43c-6.931-5.177-14.732-8.917-23.035-11.081l18.967-170.785l172.862,13.074
	L358.534,139.659z M270.575,36.376l-16.937,152.507c-13.771,0.474-26.821,5.064-37.721,13.204l-55.525-55.527L270.575,36.376z
	 M33.311,47.118l106.345,106.345c0.003,0.003,0.004,0.005,0.007,0.007l62.434,62.434c-5.18,6.934-8.92,14.739-11.086,23.044
	L20.228,219.971L33.311,47.118z M36.379,241.428l152.505,16.947c0.476,13.774,5.068,26.824,13.211,37.723l-55.523,55.523
	L36.379,241.428z M215.914,309.917c6.931,5.176,14.732,8.913,23.034,11.077l-18.978,170.78L47.132,478.701L215.914,309.917z
	 M241.428,475.622l16.947-152.5c13.773-0.476,26.827-5.068,37.727-13.212l55.519,55.519L241.428,475.622z M478.709,464.881
	L372.354,358.524c-0.001-0.001-0.003-0.003-0.005-0.005l-62.439-62.438c5.24-7.039,8.915-14.877,11.042-23.043l170.82,18.991
	L478.709,464.881z"/>
</svg>